# Blender v2.75 (sub 0) OBJ File: ''
# www.blender.org
o Cone
v 0.179973 -0.154667 0.317468
v 1.325427 0.414615 1.269494
v 0.148593 0.453354 0.194291
v 0.431603 0.995086 0.083479
v 0.953169 1.325372 0.014725
v 0.517332 -0.666059 0.420006
v 1.070278 -0.943794 0.474430
v 1.690647 -0.913453 0.466156
v 2.212213 -0.583167 0.397402
v 2.495222 -0.041435 0.286591
v 2.463843 0.566585 0.163414
v 2.126484 1.077977 0.060876
v 1.573538 1.355712 0.006452
vn -0.668000 0.114500 0.735300
vn -0.362100 0.700000 0.615500
vn -0.561200 -0.209700 0.800700
vn -0.303400 -0.438200 0.846100
vn 0.036400 -0.509900 0.859500
vn 0.367100 -0.405400 0.837200
vn 0.600100 -0.152900 0.785200
vn 0.673000 0.180100 0.717400
vn 0.566200 0.504300 0.652000
vn 0.308400 0.732800 0.606600
vn -0.595100 0.447500 0.667500
vn -0.031400 0.804400 0.593200
vn -0.003400 -0.198700 -0.980100
s 1
f 1//1 2//1 3//1
f 4//2 2//2 5//2
f 6//3 2//3 1//3
f 7//4 2//4 6//4
f 8//5 2//5 7//5
f 9//6 2//6 8//6
f 10//7 2//7 9//7
f 11//8 2//8 10//8
f 12//9 2//9 11//9
f 13//10 2//10 12//10
f 3//11 2//11 4//11
f 5//12 2//12 13//12
f 1//13 11//13 7//13
f 1//13 3//13 4//13
f 7//13 6//13 1//13
f 9//13 8//13 7//13
f 11//13 10//13 9//13
f 13//13 12//13 11//13
f 11//13 5//13 13//13
f 11//13 1//13 4//13
f 11//13 9//13 7//13
f 4//13 5//13 11//13
