# Blender v2.75 (sub 0) OBJ File: ''
# www.blender.org
o Sphere
v -0.968686 -0.559273 -0.000000
v -0.783684 -0.559270 -0.569381
v -0.452461 -0.968686 -0.328732
v -1.118543 0.000000 0.000000
v -0.904921 0.000000 -0.657464
v -0.968686 0.559273 0.000000
v -0.783684 0.559273 -0.569381
v -0.299340 -0.559270 -0.921277
v -0.172824 -0.968686 -0.531898
v -0.345649 0.000000 -1.063798
v -0.299340 0.559273 -0.921276
v -0.452461 0.968686 -0.328732
v -0.172824 0.968686 -0.531898
v 0.299340 -0.559270 -0.921277
v 0.172824 -0.968686 -0.531898
v 0.345649 0.000000 -1.063798
v 0.299340 0.559273 -0.921276
v 0.172824 0.968686 -0.531898
v 0.783684 -0.559270 -0.569381
v 0.452461 -0.968686 -0.328732
v 0.904921 0.000000 -0.657464
v 0.783684 0.559273 -0.569381
v 0.452461 0.968686 -0.328732
v 0.968686 -0.559273 -0.000000
v 0.559273 -0.968686 -0.000000
v 1.118543 0.000000 0.000000
v 0.968686 0.559273 0.000000
v 0.559273 0.968686 0.000000
v 0.783684 -0.559273 0.569381
v 0.452461 -0.968686 0.328732
v 0.904921 -0.000000 0.657464
v 0.783684 0.559270 0.569381
v 0.452461 0.968686 0.328732
v 0.299340 -0.559273 0.921276
v 0.172824 -0.968686 0.531898
v 0.345649 -0.000000 1.063798
v 0.299340 0.559270 0.921277
v 0.172824 0.968686 0.531898
v -0.299340 -0.559273 0.921276
v -0.172824 -0.968686 0.531898
v -0.345649 -0.000000 1.063798
v -0.299340 0.559270 0.921277
v -0.172824 0.968686 0.531898
v -0.783684 -0.559273 0.569381
v -0.452461 -0.968686 0.328732
v -0.904921 -0.000000 0.657464
v -0.783684 0.559270 0.569381
v -0.452461 0.968686 0.328732
v 0.000000 -1.118543 -0.000000
v -0.559273 -0.968686 -0.000000
v -0.559273 0.968686 0.000000
v 0.000000 1.118543 0.000000
vn -0.689200 -0.689200 -0.223900
vn -0.921600 -0.246900 -0.299400
vn -0.921600 0.246900 -0.299400
vn -0.425900 -0.689200 -0.586200
vn -0.569600 -0.246900 -0.784000
vn -0.569600 0.246900 -0.784000
vn -0.425900 0.689200 -0.586200
vn 0.000000 -0.689200 -0.724600
vn 0.000000 -0.246900 -0.969000
vn 0.000000 0.246900 -0.969000
vn 0.000000 0.689200 -0.724600
vn 0.425900 -0.689200 -0.586200
vn 0.569600 -0.246900 -0.784000
vn 0.569600 0.246900 -0.784000
vn 0.425900 0.689200 -0.586200
vn 0.689200 -0.689200 -0.223900
vn 0.921600 -0.246900 -0.299400
vn 0.921600 0.246900 -0.299400
vn 0.689200 0.689200 -0.223900
vn 0.689200 -0.689200 0.223900
vn 0.921600 -0.246900 0.299400
vn 0.921600 0.246900 0.299400
vn 0.689200 0.689200 0.223900
vn 0.425900 -0.689200 0.586200
vn 0.569600 -0.246900 0.784000
vn 0.569600 0.246900 0.784000
vn 0.425900 0.689200 0.586200
vn 0.000000 -0.689200 0.724600
vn 0.000000 -0.246900 0.969000
vn 0.000000 0.246900 0.969000
vn 0.000000 0.689200 0.724600
vn -0.425900 -0.689200 0.586200
vn -0.569600 -0.246900 0.784000
vn -0.569600 0.246900 0.784000
vn -0.425900 0.689200 0.586200
vn -0.257900 -0.962500 -0.083800
vn -0.689200 0.689200 -0.223900
vn -0.257900 0.962500 -0.083800
vn -0.159400 -0.962500 -0.219400
vn -0.159400 0.962500 -0.219400
vn 0.000000 -0.962500 -0.271200
vn 0.000000 0.962500 -0.271200
vn 0.159400 -0.962500 -0.219400
vn 0.159400 0.962500 -0.219400
vn 0.257900 -0.962500 -0.083800
vn 0.257900 0.962500 -0.083800
vn 0.257900 -0.962500 0.083800
vn 0.257900 0.962500 0.083800
vn 0.159400 -0.962500 0.219400
vn 0.159400 0.962500 0.219400
vn 0.000000 -0.962500 0.271200
vn 0.000000 0.962500 0.271200
vn -0.159400 -0.962500 0.219400
vn -0.159400 0.962500 0.219400
vn -0.257900 -0.962500 0.083800
vn -0.689200 -0.689200 0.223900
vn -0.921600 -0.246900 0.299400
vn -0.921600 0.246900 0.299400
vn -0.689200 0.689200 0.223900
vn -0.257900 0.962500 0.083800
vn -0.689100 -0.689200 0.223900
s 1
f 1//1 2//1 3//1
f 4//2 5//2 2//2
f 6//3 7//3 5//3
f 2//4 8//4 9//4
f 5//5 10//5 8//5
f 7//6 11//6 10//6
f 12//7 13//7 11//7
f 8//8 14//8 15//8
f 10//9 16//9 14//9
f 11//10 17//10 16//10
f 13//11 18//11 17//11
f 14//12 19//12 20//12
f 14//13 16//13 21//13
f 16//14 17//14 22//14
f 17//15 18//15 23//15
f 19//16 24//16 25//16
f 21//17 26//17 24//17
f 22//18 27//18 26//18
f 23//19 28//19 27//19
f 24//20 29//20 30//20
f 26//21 31//21 29//21
f 26//22 27//22 32//22
f 28//23 33//23 32//23
f 29//24 34//24 35//24
f 29//25 31//25 36//25
f 32//26 37//26 36//26
f 33//27 38//27 37//27
f 34//28 39//28 40//28
f 34//29 36//29 41//29
f 37//30 42//30 41//30
f 38//31 43//31 42//31
f 39//32 44//32 45//32
f 41//33 46//33 44//33
f 42//34 47//34 46//34
f 43//35 48//35 47//35
f 49//36 50//36 3//36
f 6//37 51//37 12//37
f 51//38 52//38 12//38
f 49//39 3//39 9//39
f 12//40 52//40 13//40
f 49//41 9//41 15//41
f 13//42 52//42 18//42
f 49//43 15//43 20//43
f 18//44 52//44 23//44
f 49//45 20//45 25//45
f 23//46 52//46 28//46
f 49//47 25//47 30//47
f 28//48 52//48 33//48
f 49//49 30//49 35//49
f 33//50 52//50 38//50
f 49//51 35//51 40//51
f 38//52 52//52 43//52
f 49//53 40//53 45//53
f 43//54 52//54 48//54
f 49//55 45//55 50//55
f 44//56 1//56 50//56
f 46//57 4//57 1//57
f 47//58 6//58 4//58
f 47//59 48//59 51//59
f 48//60 52//60 51//60
f 50//1 1//1 3//1
f 1//2 4//2 2//2
f 4//3 6//3 5//3
f 3//4 2//4 9//4
f 2//5 5//5 8//5
f 5//6 7//6 10//6
f 7//7 12//7 11//7
f 9//8 8//8 15//8
f 8//9 10//9 14//9
f 10//10 11//10 16//10
f 11//11 13//11 17//11
f 15//12 14//12 20//12
f 19//13 14//13 21//13
f 21//14 16//14 22//14
f 22//15 17//15 23//15
f 20//16 19//16 25//16
f 19//17 21//17 24//17
f 21//18 22//18 26//18
f 22//19 23//19 27//19
f 25//20 24//20 30//20
f 24//21 26//21 29//21
f 31//22 26//22 32//22
f 27//23 28//23 32//23
f 30//24 29//24 35//24
f 34//25 29//25 36//25
f 31//26 32//26 36//26
f 32//27 33//27 37//27
f 35//28 34//28 40//28
f 39//29 34//29 41//29
f 36//30 37//30 41//30
f 37//31 38//31 42//31
f 40//32 39//32 45//32
f 39//33 41//33 44//33
f 41//34 42//34 46//34
f 42//35 43//35 47//35
f 7//37 6//37 12//37
f 45//61 44//56 50//56
f 44//57 46//57 1//57
f 46//58 47//58 4//58
f 6//59 47//59 51//59
