# Blender v2.75 (sub 0) OBJ File: ''
# www.blender.org
o Cone
v 0.000000 -0.500000 -0.500000
v 0.353553 -0.500000 -0.353553
v 0.500000 -0.500000 0.000000
v 0.353553 -0.500000 0.353553
v -0.000000 -0.500000 0.500000
v 0.000000 0.500000 0.000000
v -0.353553 -0.500000 0.353553
v -0.500000 -0.500000 -0.000000
v -0.353553 -0.500000 -0.353553
vt 0.000000 0.000000
vt 1.000000 0.000000
vt 1.000000 1.000000
vt 0.500000 1.000000
vt 1.000000 0.500000
vt 0.500000 0.000000
vt 0.000000 0.500000
vt 0.146447 0.853553
vt 0.146447 0.146447
vt 0.853553 0.146447
vt 0.853553 0.853553
vn -0.838700 0.419400 -0.347400
vn 0.347400 0.419400 -0.838700
vn -0.838700 0.419400 0.347400
vn -0.347400 0.419400 0.838700
vn 0.347400 0.419400 0.838700
vn 0.838700 0.419400 0.347400
vn -0.347400 0.419400 -0.838700
vn 0.838700 0.419400 -0.347400
vn 0.000000 -1.000000 0.000000
s off
f 8/1/1 6/2/1 9/3/1
f 1/1/2 6/2/2 2/3/2
f 7/1/3 6/2/3 8/3/3
f 5/1/4 6/2/4 7/3/4
f 4/1/5 6/2/5 5/3/5
f 3/1/6 6/2/6 4/3/6
f 9/1/7 6/2/7 1/3/7
f 2/1/8 6/2/8 3/3/8
f 1/4/9 3/5/9 5/6/9
f 8/7/9 9/8/9 1/4/9
f 1/4/9 7/9/9 8/7/9
f 3/5/9 4/10/9 5/6/9
f 1/4/9 2/11/9 3/5/9
f 5/6/9 7/9/9 1/4/9
